<svg width="134" height="28" viewBox="0 0 134 28" fill="none" xmlns="http://www.w3.org/2000/svg">
<path d="M16.4808 22.246H13.6654V19.7143C13.0039 20.5159 12.1892 21.3095 11.2534 21.7064C10.1805 22.1032 9.11565 22.3651 8.04274 22.3651C6.56649 22.3651 5.22738 22.1032 3.88827 21.2937C2.67823 20.6349 1.75053 19.6984 1.0729 18.5C0.411414 17.1667 0 15.7064 0 14.2381C0 12.7698 0.266209 11.3095 1.0729 9.97619C1.73439 8.77778 2.67823 7.84921 3.88827 7.18254C5.09831 6.52381 6.56649 6.11111 8.04274 6.11111C9.11565 6.11111 10.1805 6.37302 11.1243 6.76984C12.0681 7.16667 12.8668 7.84127 13.5363 8.62698V0H16.4808V22.246ZM10.9952 19.3175C11.8019 18.9206 12.4715 18.119 12.8668 17.3254C13.8106 15.4683 13.8106 13.3333 12.8668 11.4683C12.4715 10.6667 11.7939 10.0079 10.9952 9.47619C9.25278 8.53968 7.25218 8.53968 5.50972 9.47619C4.70303 9.87302 4.03347 10.6746 3.63819 11.4683C2.69436 13.3254 2.69436 15.4603 3.63819 17.3254C4.03347 18.127 4.7111 18.7857 5.50972 19.3175C7.25218 20.254 9.38992 20.254 10.9952 19.3175Z" fill="#4689F4"/>
<path d="M34.6959 15.2064H21.8453C21.9744 16.5397 22.652 17.7381 23.7168 18.5317C24.7897 19.4683 26.266 19.8651 27.597 19.8651C29.3395 20 30.9448 19.2064 32.1468 18.0079L33.7521 19.8651C33.0906 20.6667 32.1468 21.3254 31.0739 21.7222C30.001 22.1191 28.6619 22.381 27.4599 22.381C25.8546 22.381 24.3783 22.1191 23.0392 21.3095C21.8292 20.6508 20.7724 19.7143 19.9576 18.381C19.2961 17.0476 18.8847 15.7143 18.8847 14.254C18.8847 12.7937 19.1509 11.3254 19.9576 10.127C20.6191 8.92857 21.5629 8 22.773 7.19841C23.983 6.53968 25.4512 6.12698 26.9275 6.12698C28.4037 6.12698 29.7428 6.38889 30.9448 7.19841C32.1548 7.85714 33.0825 8.92857 33.7602 10.127C34.4216 11.4603 34.8331 12.9206 34.704 14.3889C34.6959 14.5317 34.6959 14.8095 34.6959 15.2064ZM23.4506 9.88095C22.5068 10.8175 21.9744 11.873 21.8453 13.2063H32.0096C31.8806 12.0079 31.3481 10.8095 30.4043 10.0159C29.4605 9.21429 28.2666 8.68254 26.9275 8.68254C25.5883 8.56349 24.3783 8.96032 23.4506 9.88095Z" fill="#4689F4"/>
<path d="M39.2457 15.2064C39.3748 16.5397 40.0524 17.7381 41.1172 18.5317C42.1901 19.4683 43.6664 19.8651 44.9974 19.8651C46.7399 20 48.3452 19.2064 49.5472 18.0079L51.1525 19.8651C50.491 20.6667 49.5472 21.3254 48.4743 21.7222C47.4014 22.1191 46.0622 22.381 44.8603 22.381C43.2549 22.381 41.7787 22.1191 40.4396 21.3095C39.2295 20.6508 38.1728 19.7143 37.4952 18.381C36.8175 17.0476 36.4223 15.7143 36.4223 14.254C36.4223 12.7937 36.8175 11.3254 37.4952 10.127C38.1728 8.92857 39.1005 7.87302 40.3105 7.19841C41.5206 6.53968 42.9887 6.12698 44.3279 6.12698C45.8041 6.12698 47.1432 6.38889 48.3533 7.19841C49.5633 7.85714 50.491 8.92857 51.1686 10.127C51.8301 11.4603 52.2415 12.9206 52.1125 14.3889C52.1044 14.5317 52.1044 14.8095 52.1044 15.2064H39.2457ZM40.851 9.88095C39.9072 10.6825 39.3748 11.873 39.2457 13.2063H49.41C49.2729 12.0079 48.7485 10.8095 47.8047 10.0159C46.8609 9.21429 45.667 8.68254 44.3279 8.68254C42.9887 8.56349 41.7787 8.96032 40.851 9.88095Z" fill="#4689F4"/>
<path d="M66.8104 7.22222C68.0205 7.88095 68.9482 8.81746 69.6258 10.0159C70.2873 11.3492 70.6987 12.8095 70.6987 14.2778C70.6987 15.746 70.4325 17.2064 69.6258 18.5397C68.9643 19.7381 68.0205 20.6667 66.8104 21.3333C65.6004 21.9921 64.1322 22.4048 62.6559 22.4048C61.583 22.4048 60.5182 22.2698 59.5744 21.746C58.6305 21.3492 57.8319 20.6746 57.1624 19.8889V28H54.347V6.28571H57.1624V8.81746C57.8239 8.01587 58.6386 7.22222 59.5744 6.8254C60.6473 6.42857 61.7121 6.16667 62.785 6.16667C64.1241 6.15079 65.6004 6.42064 66.8024 7.22222H66.8104ZM65.2051 19.0556C66.0118 18.5238 66.6814 17.8571 67.0766 17.0635C68.0205 15.2064 68.0205 13.0714 67.0766 11.2064C66.6814 10.4048 66.0037 9.74603 65.2051 9.21429C64.3984 8.81746 63.4626 8.55556 62.5269 8.55556C61.5911 8.55556 60.6553 8.81746 59.8487 9.21429C59.042 9.74603 58.3724 10.4127 57.9771 11.2064C57.4447 12.1429 57.3156 13.0635 57.3156 14.1349C57.3156 15.2064 57.5818 16.127 57.9771 17.0635C58.3724 17.8651 59.05 18.5238 59.8487 19.0556C61.4701 19.9921 63.6078 19.9921 65.2132 19.0556H65.2051Z" fill="#4689F4"/>
<path d="M86.6148 7.88095C87.8248 9.21429 88.4863 11.0714 88.3492 12.9365V22.1191H85.5338V13.3333C85.6629 12.1349 85.2676 10.8016 84.4609 9.88095C83.6542 9.07937 82.4522 8.68254 81.2503 8.68254C79.9111 8.54762 78.572 9.07937 77.5072 10.0159C76.5634 11.0873 76.0309 12.4127 76.1681 13.8651V22.1111H73.3527V0.0238095H76.1681V8.53175C76.8296 7.73016 77.6443 7.19841 78.5801 6.80159C79.653 6.40476 80.7178 6.14286 81.7907 6.14286C83.5332 6.02381 85.2676 6.68254 86.6067 7.88095H86.6148Z" fill="#454545"/>
<path d="M94.117 21.1905C92.907 20.5317 91.8421 19.5952 91.1726 18.2619C89.6963 15.7302 89.6963 12.5397 91.1726 10.0159C91.8341 8.81746 92.9151 7.88889 94.117 7.22222C95.4561 6.56349 96.9324 6.15079 98.4006 6.15079C99.8688 6.15079 101.345 6.4127 102.684 7.0873C103.894 7.74603 104.951 8.68254 105.629 9.88095C107.105 12.4127 107.105 15.6032 105.629 18.127C104.967 19.3254 103.886 20.381 102.684 21.0556C101.345 21.7143 99.8688 22.127 98.4006 22.127C96.9243 22.246 95.4561 21.9841 94.117 21.1905ZM101.208 19.0556C102.015 18.6587 102.684 17.8571 103.079 17.0635C104.023 15.2064 104.023 13.0714 103.079 11.2064C102.684 10.4048 102.006 9.74603 101.208 9.21429C99.4735 8.27778 97.4648 8.27778 95.7224 9.21429C94.9157 9.61111 94.2461 10.4127 93.8508 11.2064C92.907 13.0635 92.907 15.1984 93.8508 17.0635C94.2461 17.8651 94.9237 18.5238 95.7224 19.0556C97.3277 19.9921 99.4654 19.9921 101.208 19.0556Z" fill="#454545"/>
<path d="M134 6.28571L127.974 22.1111H125.159L120.609 10.1349L115.922 22.1111H113.107L107.226 6.28571H109.904L114.454 18.7857L119.27 6.28571H121.682L126.369 18.9206L131.056 6.28571H134Z" fill="#454545"/>
</svg>
